<svg xmlns:xlink="http://www.w3.org/1999/xlink" xmlns="http://www.w3.org/2000/svg" viewBox="0 -5 220 171.00698881124742" height="171.00698881124742" width="220" style="width: 220px; height: 171.007px; position: absolute; top: 50%; left: 50%; transform: translate(-50%, -50%) scale(0.771898); z-index: 0; cursor: pointer;"><defs id="SvgjsDefs1029"></defs><g id="SvgjsG1030" featurekey="symbolFeature-0" transform="matrix(1.5695471157501573,0,0,1.5695471157501573,34.291208113736964,-29.98938755887174)" fill="#FFFFFF"><g xmlns="http://www.w3.org/2000/svg" fill="#FFFFFF"><g fill="#FFFFFF"><path d="M53.3847847,15.9214001c-0.0326004,0-0.0600014,0.0153999-0.0917015,0.0185003    c-0.0822983-0.0028-0.1634979-0.0142002-0.2481995,0.0043993l-21.6924,4.7212009    c-0.0312996,0.0068989-0.0544834,0.0275993-0.0844841,0.0370998c-0.0659161,0.0208988-0.1253147,0.0474987-0.184515,0.0809994    c-0.0554848,0.0312004-0.1064014,0.0634003-0.1542015,0.1039009c-0.0493984,0.0415993-0.0906982,0.0868988-0.1311989,0.1371994    c-0.0403004,0.0501003-0.0755997,0.0998993-0.1056995,0.1567993c-0.0293007,0.0552998-0.0501003,0.1117001-0.0687008,0.1725006    c-0.0202007,0.0653992-0.0338001,0.1296005-0.0401993,0.1989002c-0.0029011,0.0310993-0.0181007,0.0578995-0.0181007,0.0896988    v20.0266018c-1.1690998-1.1247025-2.7535992-1.8206024-4.5-1.8206024c-3.5839996,0-6.5,2.9160004-6.5,6.5s2.9160004,6.5,6.5,6.5    s6.5-2.9160004,6.5-6.5V22.4482994L52.3847847,18.1348v18.8132019c-1.1692009-1.1247025-2.7536011-1.8206024-4.5-1.8206024    c-3.5839996,0-6.5,2.9160995-6.5,6.5c0,3.5839996,2.9160004,6.5,6.5,6.5s6.5-2.9160004,6.5-6.5V16.9214001    C54.3847847,16.3691006,53.9374847,15.9214001,53.3847847,15.9214001z M26.0653839,50.8485985c-2.4813843,0-4.5-2.0184975-4.5-4.5    c0-2.4813995,2.0186157-4.5,4.5-4.5c2.4815006,0,4.5,2.0186005,4.5,4.5    C30.5653839,48.830101,28.5468845,50.8485985,26.0653839,50.8485985z M47.8847847,46.1273994c-2.4815025,0-4.5-2.0185013-4.5-4.5    c0-2.4813995,2.0184975-4.5,4.5-4.5c2.4813995,0,4.5,2.0186005,4.5,4.5    C52.3847847,44.1088982,50.3661842,46.1273994,47.8847847,46.1273994z" fill="#FFFFFF"></path><path d="M47.6005821,58.1987c-1.732399-1.6831017-3.6571999-3.2030983-5.7196999-4.5185013    c-0.3076973-0.1947975-0.6992989-0.2084999-1.0185966-0.033699c-0.3202858,0.1758003-0.5195007,0.5116997-0.5195007,0.8768997    v20.0266037c-1.1692009-1.1246033-2.7536011-1.8205032-4.5-1.8205032c-3.5839996,0-6.5,2.9160004-6.5,6.5s2.9160004,6.5,6.5,6.5    s6.5-2.9160004,6.5-6.5V56.4062996c1.3719978,0.9832993,2.6669998,2.0643997,3.8652153,3.2275009    c1.0360832,1.0053978,2.1835823,2.2216988,2.8358841,3.6181984c1.3574982,2.9085999-0.2538834,7.6483994-1.0283012,9.9267044    c-0.1786995,0.5224991,0.1016006,1.0907974,0.6240005,1.2686005c0.5284157,0.1776962,1.0918007-0.1016006,1.2686005-0.625    c1.3086014-3.8467026,2.4442978-8.2110062,0.9482002-11.4165039C50.0663834,60.7158012,48.7675819,59.3306007,47.6005821,58.1987z     M35.8427849,83.7294998c-2.4815025,0-4.5-2.0186005-4.5-4.5c0-2.4814987,2.0184975-4.5,4.5-4.5    c2.4813995,0,4.5,2.0185013,4.5,4.5C40.3427849,81.7108994,38.3241844,83.7294998,35.8427849,83.7294998z" fill="#FFFFFF"></path><path d="M77.2323837,66.5214996c-0.400383-0.3804016-1.0322037-0.3638-1.4140015,0.0365982    c-1.0449982,1.1006012-2.4756012,2.6079025-3.9932022,3.2881012c-1.2626953,0.5649033-2.2841797,0.0586014-3.8485947-0.8129959    c-1.0625-0.5918045-2.1612015-1.2041016-3.4649048-1.314003c-3.3886795-0.2938995-6.0780983,2.4394989-7.8495979,4.2446976    c-0.3866997,0.3940048-0.3807983,1.0273056,0.0137024,1.4140015c0.1942978,0.1913986,0.447216,0.2866974,0.7002144,0.2866974    c0.2587852,0,0.5175858-0.1000977,0.7137833-0.2994003c1.5098-1.5380936,3.8037987-3.8631973,6.2539978-3.6527939    c0.875,0.0737,1.7421036,0.5565948,2.6601028,1.067894c1.5938034,0.8886032,3.4003983,1.8960037,5.6397018,0.8911057    c1.7342987-0.7778015,3.1776962-2.2109985,4.6259003-3.7363052C77.6493835,67.5346985,77.632782,66.9019012,77.2323837,66.5214996    z" fill="#FFFFFF"></path><path d="M65.2177811,58.6001015c3.5839996,0,6.5-2.9160004,6.5-6.5V27.3939991c0-0.5521984-0.4472961-1-1-1    c-0.5527802,0-1,0.4478016-1,1v20.026701c-1.1691971-1.1246986-2.7536011-1.8205986-4.5-1.8205986    c-3.5839996,0-6.4999962,2.9160004-6.4999962,6.5S61.6337814,58.6001015,65.2177811,58.6001015z M65.2177811,47.6001015    c2.4813995,0,4.5,2.0185966,4.5,4.5c0,2.4813995-2.0186005,4.5-4.5,4.5c-2.4814987,0-4.4999962-2.0186005-4.4999962-4.5    C60.7177849,49.6186981,62.7362823,47.6001015,65.2177811,47.6001015z" fill="#FFFFFF"></path></g></g></g><g id="SvgjsG1031" featurekey="nameFeature-0" transform="matrix(1.2460397744532774,0,0,1.2460397744532774,-2.4923596944342297,115.61056827870031)" fill="#FFFFFF"><path d="M12.202 30.3388 c0.067656 -0.0068752 0.13652 -0.013516 0.20578 -0.02 c0.4626 -2.6426 0.88948 -5.2916 1.3982 -7.9252 c0.47836 -2.4761 1.0418 -4.936 1.57 -7.4028 c0.10816 -0.50592 0.23008 -1.0094 0.335 -1.5161 c0.078984 -0.38277 0.2568 -0.64568 0.67644 -0.71408 c0.95716 -0.15594 1.9082 -0.35035 2.8682 -0.4844 c0.37871 -0.052656 0.78132 -0.02918 1.1605 0.034414 c0.9616 0.16121 1.3051 0.57476 1.2054 1.5368 c-0.42896 4.1344 -0.3127 8.2812 -0.28027 12.424 c0.019844 2.5231 0.22398 5.044 0.31308 7.5668 c0.055076 1.5506 0.09074 3.1043 0.05672 4.6548 c-0.021875 1.009 -0.29527 1.2998 -1.2978 1.2929 c-0.79068 -0.0052736 -1.6008 -0.17258 -2.3639 -0.39777 c-0.63308 -0.18715 -0.97576 -0.73436 -0.98992 -1.4185 c-0.031992 -1.5206 -0.046992 -3.0412 -0.0709 -4.5616 c-0.032812 -2.0682 -0.067228 -4.1368 -0.26934 -6.226 c-0.21184 1.0134 -0.41272 2.0289 -0.63792 3.0395 c-0.5772 2.5883 -1.137 5.1808 -1.7583 7.7584 c-0.40344 1.6729 -0.55372 1.7332 -2.287 1.5174 c-1.0791 -0.13449 -1.2694 -0.32082 -1.5627 -1.3768 c-1.0462 -3.7702 -2.103 -7.5372 -3.1598 -11.304 c-0.085468 -0.30461 -0.20293 -0.59988 -0.4484 -0.90408 c-0.039297 0.22684 -0.11344 0.45368 -0.11184 0.68008 c0.019024 3.0108 0.060744 6.0212 0.068436 9.032 c0.0024219 1.0341 -0.032422 2.0723 -0.12641 3.1019 c-0.081408 0.89072 -0.37789 1.1285 -1.2646 1.1042 c-0.77568 -0.021484 -1.5522 -0.085468 -2.3226 -0.1766 c-0.72504 -0.085468 -0.80728 -0.22644 -0.82792 -0.92396 c-0.087072 -2.9435 -0.19359 -5.8868 -0.2734 -8.83 c-0.022695 -0.84008 0.020234 -1.6822 0.032774 -2.5235 c0.04336 -2.914 0.060352 -5.8288 0.13973 -8.742 c0.049412 -1.8106 0.18836 -3.6191 0.29934 -5.4276 c0.035664 -0.578 0.21469 -0.79068 0.8826 -0.77568 c0.99924 0.022266 2.0042 0.10207 2.9917 0.25641 c1.3877 0.21672 1.3772 0.25641 1.698 1.6186 c0.85304 3.6196 1.6745 7.2472 2.581 10.853 c0.43948 1.7478 1.0414 3.4547 1.57 5.1804 z M35.567 13.084 c0.0089064 -0.25356 0.070468 -0.50456 0.11867 -0.8282 c1.3873 -0.145 2.7524 -0.15066 4.1888 -0.10976 c0 0.87652 0.030781 1.6474 -0.0060936 2.4145 c-0.098008 2.0378 -0.30863 4.0732 -0.32199 6.1112 c-0.019844 3.0748 0.094804 6.1504 0.14219 9.2256 c0.034024 2.2096 -0.082228 4.3856 -0.91824 6.4896 c-0.8976 2.2586 -2.7005 3.2558 -4.9 3.6354 c-2.7082 0.46704 -5.2552 -0.75664 -6.5648 -3.4191 c-0.7684 -1.5619 -1.2472 -3.1942 -1.2682 -4.9416 c-0.018633 -1.5542 0.015391 -3.1092 -0.019844 -4.6624 c-0.049804 -2.201 -0.15754 -4.4004 -0.21102 -6.6012 c-0.049412 -2.0378 -0.060352 -4.076 -0.08668 -6.1144 c-0.0012109 -0.096796 0.012148 -0.19402 0.023476 -0.29043 c0.16242 -1.3926 0.43136 -1.632 1.8624 -1.6425 c0.55048 -0.0040624 1.103 -0.020664 1.6518 0.014961 c0.6254 0.0409 0.72708 0.14906 0.74856 0.77044 c0.031172 0.90652 0.04332 1.8138 0.0409 2.7208 c-0.010117 3.9185 -0.034844 7.8372 -0.039688 11.756 c-0.0020312 1.4574 0.0052736 2.916 0.069688 4.3716 c0.028359 0.63956 0.17418 1.2816 0.33133 1.9062 c0.14742 0.58572 0.53424 1.0248 1.0584 1.3371 c1.2873 0.76676 2.4461 0.41516 2.9885 -0.97824 c0.65292 -1.6781 0.89072 -3.4462 0.90204 -5.2364 c0.021875 -3.4 -0.016211 -6.8004 0.014961 -10.2 c0.017422 -1.9098 0.12113 -3.8189 0.19484 -5.728 z M47.13119999999999 32.5068 c0.28394 0.0048436 0.56796 0.034922 0.70972 0.044648 c0.43708 0.92072 0.721 1.6761 1.1346 2.3514 c0.512 0.836 1.3679 1.1827 2.3198 1.1799 c0.32039 -0.00082032 0.69832 -0.18188 0.94944 -0.39738 c0.9944 -0.85388 1.3537 -1.9455 1.0292 -3.2304 c-0.3852 -1.5242 -1.2783 -2.7491 -2.3444 -3.8574 c-0.69628 -0.72344 -1.4307 -1.41 -2.1484 -2.1124 c-1.2322 -1.2058 -2.3335 -2.5215 -3.2477 -3.9833 c-1.0888 -1.7401 -1.5643 -3.6216 -1.1074 -5.6608 c0.11828 -0.5274 0.3034 -1.0778 0.60152 -1.5206 c1.1758 -1.7458 2.7442 -3.0108 4.8036 -3.5758 c2.9342 -0.80484 6.2464 0.94012 7.2004 3.8116 c0.23211 0.69872 0.3743 1.4408 0.448 2.174 c0.061564 0.61648 -0.13164 0.83724 -0.74448 0.93324 c-0.89356 0.14016 -1.7989 0.21062 -2.7009 0.28555 c-0.47592 0.039297 -0.80244 -0.20211 -0.96568 -0.65332 c-0.098828 -0.27383 -0.16973 -0.56064 -0.29531 -0.82108 c-0.18188 -0.3775 -0.36617 -0.76312 -0.61444 -1.0969 c-0.40344 -0.54196 -0.93 -0.91908 -1.6562 -0.81376 c-0.7522 0.10938 -1.0868 0.67364 -1.2597 1.3217 c-0.39453 1.478 -0.39613 2.9597 0.26492 4.3636 c0.22562 0.47916 0.61488 0.90572 1.0033 1.2796 c1.2601 1.2115 2.6114 2.3327 3.8212 3.5912 c1.431 1.4886 2.4409 3.2579 2.9808 5.2712 c0.2398 0.89436 0.28598 1.8155 0.012969 2.6859 c-0.36578 1.1658 -0.73276 2.3627 -1.3258 3.4187 c-1.3942 2.483 -3.895 3.4413 -6.642 2.7106 c-2.9196 -0.77648 -5.2636 -3.6184 -5.4688 -6.63 c-0.061992 -0.91176 0.17617 -1.1342 1.109 -1.0973 c0.71008 0.02793 1.4222 0.01375 2.133 0.027109 z M61.5263 25.93 c0.063592 -0.00082032 0.12676 -0.0016406 0.19035 -0.0024609 c-0.060744 -2.0054 -0.15551 -4.0108 -0.17254 -6.0168 c-0.016602 -1.9414 0.030391 -3.8841 0.082656 -5.8256 c0.025117 -0.93408 0.13527 -1.0321 1.0511 -1.201 c0.47716 -0.087892 0.9608 -0.14664 1.4444 -0.18957 c1.0333 -0.091524 1.3156 0.091952 1.3877 1.1143 c0.097616 1.3861 0.1057 2.7787 0.13973 4.1692 c0.072108 2.9435 0.13207 5.8872 0.20418 8.8304 c0.08426 3.4296 0.20215 6.8588 0.25398 10.289 c0.023906 1.5785 -1.0888 2.5182 -2.6531 2.2185 c-1.907 -0.36535 -1.9082 -0.31715 -1.9212 -2.2233 c-0.025508 -3.7208 -0.0072656 -7.442 -0.0072656 -11.163 z M82.44299999999998 21.361 c-1.0208 -0.050624 -2.0336 -0.26058 -2.9692 -0.60572 c-0.1134 -1.0665 -0.22723 -2.0573 -0.3216 -3.0501 c-0.063204 -0.66512 -0.31148 -1.18 -0.9924 -1.4036 c-0.70196 -0.23047 -1.3958 -0.18188 -1.8896 0.36777 c-0.39656 0.44108 -0.76032 0.99116 -0.91384 1.5542 c-0.2791 1.0244 -0.43384 2.0892 -0.56424 3.1464 c-0.3293 2.6726 -0.4022 5.3584 -0.27258 8.0476 c0.054256 1.1305 0.10082 2.2663 0.25594 3.3846 c0.091524 0.6594 0.28879 1.3476 0.61484 1.9224 c0.7226 1.2735 1.8426 1.2192 2.4955 -0.081444 c0.58812 -1.1706 0.87572 -2.4299 0.96116 -3.7354 c0.068048 -1.0394 0.13285 -1.1609 1.1799 -1.2658 c0.79956 -0.080196 1.6129 -0.042108 2.4194 -0.021055 c0.46864 0.012148 0.70356 0.34024 0.70272 0.77528 c-0.0020312 0.93608 -0.0020312 1.8762 -0.089924 2.8062 c-0.060352 0.6388 -0.2418 1.2707 -0.41236 1.8936 c-0.79512 2.9071 -3.0059 4.2004 -5.7112 4.7432 c-1.8264 0.36656 -3.266 -0.55416 -4.364 -1.9722 c-0.35199 -0.45444 -0.66512 -0.9786 -0.84132 -1.5214 c-0.5286 -1.6295 -0.99644 -3.2716 -1.0722 -5.012 c-0.077384 -1.7774 -0.29367 -3.5479 -0.42652 -5.3232 c-0.23289 -3.1116 -0.10328 -6.2116 0.41964 -9.2872 c0.72828 -4.282 5.4368 -5.76 8.2864 -4.4292 c0.40908 0.19117 0.8668 0.28719 1.2581 0.50552 c0.4156 0.23211 0.86196 0.49132 1.1508 0.85388 c1.4728 1.8487 2.2436 3.9906 2.4457 6.3336 c0.075352 0.87168 -0.42328 1.4206 -1.3492 1.3744 z  M106.96199999999999 30.3388 c0.067656 -0.0068752 0.13652 -0.013516 0.20578 -0.02 c0.4626 -2.6426 0.88948 -5.2916 1.3982 -7.9252 c0.47836 -2.4761 1.0418 -4.936 1.57 -7.4028 c0.10816 -0.50592 0.23008 -1.0094 0.335 -1.5161 c0.078984 -0.38277 0.2568 -0.64568 0.67644 -0.71408 c0.95716 -0.15594 1.9082 -0.35035 2.8682 -0.4844 c0.37871 -0.052656 0.78132 -0.02918 1.1605 0.034414 c0.9616 0.16121 1.3051 0.57476 1.2054 1.5368 c-0.42896 4.1344 -0.3127 8.2812 -0.28027 12.424 c0.019844 2.5231 0.22398 5.044 0.31308 7.5668 c0.055076 1.5506 0.09074 3.1043 0.05672 4.6548 c-0.021875 1.009 -0.29527 1.2998 -1.2978 1.2929 c-0.79068 -0.0052736 -1.6008 -0.17258 -2.3639 -0.39777 c-0.63308 -0.18715 -0.97576 -0.73436 -0.98992 -1.4185 c-0.031992 -1.5206 -0.046992 -3.0412 -0.0709 -4.5616 c-0.032812 -2.0682 -0.067228 -4.1368 -0.26934 -6.226 c-0.21184 1.0134 -0.41272 2.0289 -0.63792 3.0395 c-0.5772 2.5883 -1.137 5.1808 -1.7583 7.7584 c-0.40344 1.6729 -0.55372 1.7332 -2.287 1.5174 c-1.0791 -0.13449 -1.2694 -0.32082 -1.5627 -1.3768 c-1.0462 -3.7702 -2.103 -7.5372 -3.1598 -11.304 c-0.085468 -0.30461 -0.20293 -0.59988 -0.4484 -0.90408 c-0.039297 0.22684 -0.11344 0.45368 -0.11184 0.68008 c0.019024 3.0108 0.060744 6.0212 0.068436 9.032 c0.0024219 1.0341 -0.032422 2.0723 -0.12641 3.1019 c-0.081408 0.89072 -0.37789 1.1285 -1.2646 1.1042 c-0.77568 -0.021484 -1.5522 -0.085468 -2.3226 -0.1766 c-0.72504 -0.085468 -0.80728 -0.22644 -0.82792 -0.92396 c-0.087072 -2.9435 -0.19359 -5.8868 -0.2734 -8.83 c-0.022695 -0.84008 0.020234 -1.6822 0.032774 -2.5235 c0.04336 -2.914 0.060352 -5.8288 0.13973 -8.742 c0.049412 -1.8106 0.18836 -3.6191 0.29934 -5.4276 c0.035664 -0.578 0.21469 -0.79068 0.8826 -0.77568 c0.99924 0.022266 2.0042 0.10207 2.9917 0.25641 c1.3877 0.21672 1.3772 0.25641 1.698 1.6186 c0.85304 3.6196 1.6745 7.2472 2.581 10.853 c0.43948 1.7478 1.0414 3.4547 1.57 5.1804 z M130.327 13.084 c0.0089064 -0.25356 0.070468 -0.50456 0.11867 -0.8282 c1.3873 -0.145 2.7524 -0.15066 4.1888 -0.10976 c0 0.87652 0.030781 1.6474 -0.0060936 2.4145 c-0.098008 2.0378 -0.30863 4.0732 -0.32199 6.1112 c-0.019844 3.0748 0.094804 6.1504 0.14219 9.2256 c0.034024 2.2096 -0.082228 4.3856 -0.91824 6.4896 c-0.8976 2.2586 -2.7005 3.2558 -4.9 3.6354 c-2.7082 0.46704 -5.2552 -0.75664 -6.5648 -3.4191 c-0.7684 -1.5619 -1.2472 -3.1942 -1.2682 -4.9416 c-0.018633 -1.5542 0.015391 -3.1092 -0.019844 -4.6624 c-0.049804 -2.201 -0.15754 -4.4004 -0.21102 -6.6012 c-0.049412 -2.0378 -0.060352 -4.076 -0.08668 -6.1144 c-0.0012109 -0.096796 0.012148 -0.19402 0.023476 -0.29043 c0.16242 -1.3926 0.43136 -1.632 1.8624 -1.6425 c0.55048 -0.0040624 1.103 -0.020664 1.6518 0.014961 c0.6254 0.0409 0.72708 0.14906 0.74856 0.77044 c0.031172 0.90652 0.04332 1.8138 0.0409 2.7208 c-0.010117 3.9185 -0.034844 7.8372 -0.039688 11.756 c-0.0020312 1.4574 0.0052736 2.916 0.069688 4.3716 c0.028359 0.63956 0.17418 1.2816 0.33133 1.9062 c0.14742 0.58572 0.53424 1.0248 1.0584 1.3371 c1.2873 0.76676 2.4461 0.41516 2.9885 -0.97824 c0.65292 -1.6781 0.89072 -3.4462 0.90204 -5.2364 c0.021875 -3.4 -0.016211 -6.8004 0.014961 -10.2 c0.017422 -1.9098 0.12113 -3.8189 0.19484 -5.728 z M141.8912 32.5068 c0.28394 0.0048436 0.56796 0.034922 0.70972 0.044648 c0.43708 0.92072 0.721 1.6761 1.1346 2.3514 c0.512 0.836 1.3679 1.1827 2.3198 1.1799 c0.32039 -0.00082032 0.69832 -0.18188 0.94944 -0.39738 c0.9944 -0.85388 1.3537 -1.9455 1.0292 -3.2304 c-0.3852 -1.5242 -1.2783 -2.7491 -2.3444 -3.8574 c-0.69628 -0.72344 -1.4307 -1.41 -2.1484 -2.1124 c-1.2322 -1.2058 -2.3335 -2.5215 -3.2477 -3.9833 c-1.0888 -1.7401 -1.5643 -3.6216 -1.1074 -5.6608 c0.11828 -0.5274 0.3034 -1.0778 0.60152 -1.5206 c1.1758 -1.7458 2.7442 -3.0108 4.8036 -3.5758 c2.9342 -0.80484 6.2464 0.94012 7.2004 3.8116 c0.23211 0.69872 0.3743 1.4408 0.448 2.174 c0.061564 0.61648 -0.13164 0.83724 -0.74448 0.93324 c-0.89356 0.14016 -1.7989 0.21062 -2.7009 0.28555 c-0.47592 0.039297 -0.80244 -0.20211 -0.96568 -0.65332 c-0.098828 -0.27383 -0.16973 -0.56064 -0.29531 -0.82108 c-0.18188 -0.3775 -0.36617 -0.76312 -0.61444 -1.0969 c-0.40344 -0.54196 -0.93 -0.91908 -1.6562 -0.81376 c-0.7522 0.10938 -1.0868 0.67364 -1.2597 1.3217 c-0.39453 1.478 -0.39613 2.9597 0.26492 4.3636 c0.22562 0.47916 0.61488 0.90572 1.0033 1.2796 c1.2601 1.2115 2.6114 2.3327 3.8212 3.5912 c1.431 1.4886 2.4409 3.2579 2.9808 5.2712 c0.2398 0.89436 0.28598 1.8155 0.012969 2.6859 c-0.36578 1.1658 -0.73276 2.3627 -1.3258 3.4187 c-1.3942 2.483 -3.895 3.4413 -6.642 2.7106 c-2.9196 -0.77648 -5.2636 -3.6184 -5.4688 -6.63 c-0.061992 -0.91176 0.17617 -1.1342 1.109 -1.0973 c0.71008 0.02793 1.4222 0.01375 2.133 0.027109 z M156.28629999999998 25.93 c0.063592 -0.00082032 0.12676 -0.0016406 0.19035 -0.0024609 c-0.060744 -2.0054 -0.15551 -4.0108 -0.17254 -6.0168 c-0.016602 -1.9414 0.030391 -3.8841 0.082656 -5.8256 c0.025117 -0.93408 0.13527 -1.0321 1.0511 -1.201 c0.47716 -0.087892 0.9608 -0.14664 1.4444 -0.18957 c1.0333 -0.091524 1.3156 0.091952 1.3877 1.1143 c0.097616 1.3861 0.1057 2.7787 0.13973 4.1692 c0.072108 2.9435 0.13207 5.8872 0.20418 8.8304 c0.08426 3.4296 0.20215 6.8588 0.25398 10.289 c0.023906 1.5785 -1.0888 2.5182 -2.6531 2.2185 c-1.907 -0.36535 -1.9082 -0.31715 -1.9212 -2.2233 c-0.025508 -3.7208 -0.0072656 -7.442 -0.0072656 -11.163 z M177.20299999999997 21.361 c-1.0208 -0.050624 -2.0336 -0.26058 -2.9692 -0.60572 c-0.1134 -1.0665 -0.22723 -2.0573 -0.3216 -3.0501 c-0.063204 -0.66512 -0.31148 -1.18 -0.9924 -1.4036 c-0.70196 -0.23047 -1.3958 -0.18188 -1.8896 0.36777 c-0.39656 0.44108 -0.76032 0.99116 -0.91384 1.5542 c-0.2791 1.0244 -0.43384 2.0892 -0.56424 3.1464 c-0.3293 2.6726 -0.4022 5.3584 -0.27258 8.0476 c0.054256 1.1305 0.10082 2.2663 0.25594 3.3846 c0.091524 0.6594 0.28879 1.3476 0.61484 1.9224 c0.7226 1.2735 1.8426 1.2192 2.4955 -0.081444 c0.58812 -1.1706 0.87572 -2.4299 0.96116 -3.7354 c0.068048 -1.0394 0.13285 -1.1609 1.1799 -1.2658 c0.79956 -0.080196 1.6129 -0.042108 2.4194 -0.021055 c0.46864 0.012148 0.70356 0.34024 0.70272 0.77528 c-0.0020312 0.93608 -0.0020312 1.8762 -0.089924 2.8062 c-0.060352 0.6388 -0.2418 1.2707 -0.41236 1.8936 c-0.79512 2.9071 -3.0059 4.2004 -5.7112 4.7432 c-1.8264 0.36656 -3.266 -0.55416 -4.364 -1.9722 c-0.35199 -0.45444 -0.66512 -0.9786 -0.84132 -1.5214 c-0.5286 -1.6295 -0.99644 -3.2716 -1.0722 -5.012 c-0.077384 -1.7774 -0.29367 -3.5479 -0.42652 -5.3232 c-0.23289 -3.1116 -0.10328 -6.2116 0.41964 -9.2872 c0.72828 -4.282 5.4368 -5.76 8.2864 -4.4292 c0.40908 0.19117 0.8668 0.28719 1.2581 0.50552 c0.4156 0.23211 0.86196 0.49132 1.1508 0.85388 c1.4728 1.8487 2.2436 3.9906 2.4457 6.3336 c0.075352 0.87168 -0.42328 1.4206 -1.3492 1.3744 z " fill="#FFFFFF"></path></g></svg>